# xmcd
#
# Track frame offsets:
#	150
#	13435
#	25153
#	41619
#	55210
#	68067
#	81336
#	92140
#	106610
#	121086
#	134863
#	147003
#	159143
#	173870
#	188901
#	202991
#	216821
#	229101
#	242892
#	257228
#	273401
#	288279
#
# Disc length: 3994 seconds
#
# Revision: 0
# Processed by: cddbd v1.5.2PL0 Copyright (c) Steve Scherf et al.
# Submitted via: EasyCDDAExtractor 16.0.8.2
#
DISCID=3c0f9816
DTITLE=Κοινούσης Γιώργος - Δεν καταλαβαίνω τίποτα-Γ. Κοινούσης
DYEAR=2014
DGENRE=Λαϊκή
TTITLE0=Κοινούσης Γιώργος - Δεν καταλαβαίνω τίποτα [1972]
TTITLE1=Κοινούσης Γιώργος - Άνθρωποι είμαστε [1973, μουσ. στ. ιδίου]
TTITLE2=Κοινούσης Γιώργος - Ώπα, ώπα
TTITLE3=Κοινούσης Γιώργος - Έξω από την πόρτα σου
TTITLE4=Κοινούσης Γιώργος - Η ζωή συνεχίζεται
TTITLE5=Κοινούσης Γιώργος - Αμφισβητώ
TTITLE6=Κοινούσης Γιώργος - Πιάσε το ποτήρι
TTITLE7=Κοινούσης Γιώργος - Είναι αδύνατον
TTITLE8=Κοινούσης Γιώργος - Θα πουλήσω το αμάξι
TTITLE9=Κοινούσης Γιώργος - Χάρισε την αγάπη σου
TTITLE10=Κοινούσης Γιώργος - Μιά πίκρα παραπάνω
TTITLE11=Κοινούσης Γιώργος - Ένα όνειρο [στ. Ηλίας Λυμπερόπουλος]
TTITLE12=Κοινούσης Γιώργος - Τα μάτια σου
TTITLE13=Κοινούσης Γιώργος - Κι εγώ σ' αγαπώ
TTITLE14=Κοινούσης Γιώργος - Θα τα ξαναπούμε
TTITLE15=Κοινούσης Γιώργος - Το τραίνο
TTITLE16=Κοινούσης Γιώργος - Η μέρα αυτή
TTITLE17=Κοινούσης Γιώργος - Θά 'ρχομαι απ' το σπίτι
TTITLE18=Κοινούσης Γιώργος-Κορίνα - Κάβο ντόρο
TTITLE19=Κοινούσης Γιώργος - Τελεώσαμε κι οι δυό στο ίδιο στρώμα
TTITLE20=Κοινούσης Γιώργος - Στη γωνιά
TTITLE21=Κοινούσης Γιώργος - Αργά το κατάλαβα [στ. Ιωάν. Φερμάνογλου/Κ. Κοφινι
TTITLE21=ώτης]
EXTD=
EXTT0=
EXTT1=
EXTT2=
EXTT3=
EXTT4=
EXTT5=
EXTT6=
EXTT7=
EXTT8=
EXTT9=
EXTT10=
EXTT11=
EXTT12=
EXTT13=
EXTT14=
EXTT15=
EXTT16=
EXTT17=
EXTT18=
EXTT19=
EXTT20=
EXTT21=
PLAYORDER=
